<svg xmlns="http://www.w3.org/2000/svg" id="Layer_2" data-name="Layer 2" viewBox="0 0 858.43 209.48"><defs><style> .cls-1 { fill: #fff; } </style></defs><g id="Layer_1-2" data-name="Layer 1"><g id="Layer_1-2" data-name="Layer 1-2"><g id="Layer_1-2-2" data-name="Layer 1-2"><g><path class="cls-1" d="m43.91,205.43v.23c3.08.14,6.17.23,9.25.37,11.23.51,22.41-.09,33.63-1.1,5.57-.51,11.18-.74,16.79-.97,6.49-.23,12.93.69,19.37,1.2,9.16.69,18.31,1.52,27.51,1.38,4.79-.09,8.6-1.93,11.59-5.52,3.73-4.51,2.39-10.35-2.99-12.61-2.07-.87-4.32-1.47-6.58-1.7-4.69-.55-9.48-.78-14.17-1.15-11.13-.83-22.22-1.75-33.36-2.48-3.13-.23-6.3-.32-9.43.05-12.33,1.52-24.66,2.39-37.08,2.48-12.33.09-24.66-.6-36.95-1.79-4.19-.41-8.24.23-12.05,2.07-4.69,2.25-8.01,5.66-9.2,10.86-.74,3.13.6,5.84,3.59,6.99,1.38.51,2.85.87,4.28.97,5.25.32,10.44.64,15.69.74,6.72.14,13.44,0,20.15,0h-.05Z"></path><path class="cls-1" d="m388.99,209.48c-1.7-.23-3.36-.46-5.06-.74-13.53-2.35-23.51-9.39-29.22-22.08-.97-2.21-1.61-4.51-1.7-6.95-.28-7.36,5.52-11.78,12.42-10.77,3.45.51,6.67,1.7,9.75,3.36,4.28,2.35,8.79,3.82,13.57,4.69,5.98,1.1,11.69,3.08,17.21,5.52,3.96,1.75,8.1,2.62,12.42,1.89,8.47-1.43,13.8-6.4,16.15-14.59,1.29-4.56,1.24-9.25.97-13.94-.05-.92-.09-1.84-.23-2.76-.14-.83-.23-1.7-.55-2.53-.78-1.98-2.21-2.85-4.37-2.62-.92.09-1.84.32-2.67.69-3.73,1.7-7.55,3.36-11.18,5.29-4.6,2.44-9.34,4.09-14.54,4.56-12.01,1.1-25.03-4.05-31.84-17.16-1.15-2.16-1.89-4.56-2.9-6.81-1.1-2.58-2.07-5.29-3.5-7.73-1.15-2.02-2.62-3.91-4.32-5.48-2.48-2.3-3.63-5.06-3.73-8.33-.14-4.92-.18-9.85-.23-14.77-.05-4.88.09-9.75-.18-14.59-.37-7.04,1.47-13.48,4.19-19.83,4.09-9.48,11.13-15.46,20.93-18.36,11.59-3.4,23.19-3.73,34.69.55,4.19,1.56,8.05,3.73,11.73,6.26,1.29.87,2.58,1.66,3.96,2.39,1.93,1.01,3.82.78,5.52-.64.83-.64,1.56-1.38,2.35-2.12.74-.74,1.43-1.52,2.21-2.25,2.67-2.53,5.8-3.91,9.48-4,4.88-.09,9.75,0,14.59.64,9.06,1.24,15.14,7.91,15.46,17.02.09,2.71-.41,5.38-1.52,7.91-3.13,7.32-4.28,15-4.14,22.91.14,5.8.97,11.55,1.75,17.25.41,2.94.6,5.89.92,8.83.69,5.8,1.29,11.64,2.12,17.39,1.29,9.11,2.02,18.22,1.2,27.42-.41,4.6-.78,9.2-2.85,13.48-6.03,12.24-14.86,21.67-27.28,27.56-1.93.92-3.96,1.38-6.07,1.43h-1.47c-3.08.23-5.94-.41-8.79-1.61-7.04-2.9-14.31-3.08-21.53-.78-6.35,2.02-12.79,3.59-19.51,3.96-.18,0-.32.14-.46.23h-3.68l-.05.18Zm47.07-106.33c0-4.74-.74-9.34-2.3-13.76-1.84-5.15-4.65-9.62-9.25-12.84-3.73-2.62-7.87-3.77-12.42-3.04-3.96.64-7.27,2.58-10.12,5.34-6.21,5.98-8.51,13.53-8.19,21.81.18,4.74,1.2,9.52,2.3,14.17,1.38,5.84,4.97,9.94,10.72,12.01,10.95,3.91,23.14-1.7,27.38-12.47,1.43-3.59,1.93-7.36,1.89-11.23Z"></path><path class="cls-1" d="m858.43,125.56c-.09.32-.28.69-.32,1.01-.6,6.03-2.62,11.64-5.34,16.98-3.13,6.07-8.37,9.8-14.91,11.55-4.46,1.2-9.02,2.02-13.53,2.94-3.77.78-7.41,1.89-10.72,3.86-1.84,1.1-3.91,1.47-6.03,1.7-4.56.41-9.11.78-13.62,1.15-2.9.23-5.75.6-8.65.74-3.59.18-7.18-.41-10.54-1.66-4.23-1.56-8.6-2.53-13.02-3.5-6.21-1.38-11.73-4.09-16.38-8.47-2.39-2.3-4.32-4.88-5.15-8.19-1.01-4.19.37-8.05,3.82-10.58,1.89-1.38,4-2.21,6.26-2.67,4.92-1.06,9.89-1.43,14.86-1.56,2.02-.05,4.05-.14,6.12-.23,1.47-.05,2.85.14,4.09.92,2.12,1.33,4.19,2.81,6.26,4.23.83.6,1.56,1.38,2.35,2.07,6.3,5.66,13.62,7.41,21.81,5.84,1.75-.32,3.5-.78,5.15-1.38,2.62-.87,4.83-2.44,6.35-4.83,2.85-4.65,1.06-9.94-4.14-11.69-5.2-1.75-10.26-3.82-15.23-6.21-3.27-1.56-6.53-3.22-9.75-4.88-2.16-1.1-4.51-1.79-6.9-1.93-4.32-.23-8.6-.32-12.93-.32-3.96,0-7.87,0-11.59-1.7-6.95-3.08-11.69-8.28-14.68-15.18-4.97-11.46-3.36-26.09,8.28-36.76,7.55-6.9,16.29-11.27,26.41-12.65,4.46-.6,8.97-.97,13.44-1.06,6.76-.18,13.57-.28,20.34,0,9.62.32,18.77,2.58,27.05,7.78,1.38.83,2.67,1.79,3.96,2.71,3.54,2.58,5.61,6.17,6.53,10.4.87,4-.51,6.95-4.28,8.56-2.02.87-4.19,1.38-6.35,1.93-2.48.64-5.06,1.06-7.59,1.66-4.6,1.15-9.06.64-13.44-.97-2.07-.78-4.09-1.7-6.12-2.62-4.37-2.02-8.83-3.82-13.44-5.15-5.94-1.75-10.86.32-14.95,4.46-3.08,3.08-2.62,7.36.92,9.94,1.56,1.15,3.4,2.02,5.2,2.71,7.45,2.9,15.09,4.97,23.05,5.71,1.47.14,2.94.23,4.42.18,6.4,0,12.24,1.66,17.62,5.2,3.04,1.98,6.3,3.59,9.57,5.2,2.99,1.52,5.89,3.13,8.37,5.38,3.82,3.54,6.49,7.73,6.9,13.07,0,.37.18.69.32,1.06v5.2l.14.05Z"></path><path class="cls-1" d="m164.92,49.36c-.41.14-.78.32-1.38.51.09,1.84.18,3.73.23,5.61.51,11.73,1.29,23.51.78,35.24-.14,3.63-.6,7.22-1.1,10.81-.87,6.21-.87,12.42-.46,18.63.46,6.81,1.1,13.62,1.61,20.43.28,3.77-.28,7.5-1.2,11.18-1.93,7.59-8.1,12.38-16.06,12.61-3.36.09-6.63-.6-9.89-1.1-4.51-.74-9.02-1.29-13.48-2.21-6.72-1.38-12.1-5.02-16.29-10.44-4.69-6.12-8.79-12.65-12.51-19.37-5.43-9.8-11.82-18.91-19.37-27.19-2.44-2.67-4.37-5.8-6.35-8.83-2.16-3.31-4.09-6.72-6.17-10.08-1.7-2.76-4.56-3.68-6.9-2.16-1.33.83-2.07,2.16-2.35,3.63-.32,1.93-.6,3.91-.69,5.84-.46,9.11-.87,18.22-1.24,27.28-.05,1.43,0,2.85.18,4.23.69,5.2.09,10.21-1.89,15.05,0,.05,0,.14-.09.18-2.02,3.82-1.75,7.59.28,11.27.18.32.32.69.41,1.01,1.66,4.46,0,8.19-4.42,9.8-4.23,1.56-8.6,2.48-13.16,2.76-5.84.37-11.41-.64-16.7-3.13-3.96-1.84-6.99-4.6-8.05-9.06-.32-1.38-.55-2.81-.51-4.19.09-8.93-.51-17.85-1.1-26.73-.37-5.84,1.29-10.9,5.29-15.23,1.7-1.84,3.31-3.82,4.79-5.84.83-1.15,1.33-2.48,1.79-3.82.97-2.81.51-5.48-1.43-7.82-5.02-6.07-8.19-13.02-9.66-20.7-1.1-5.8-1.2-11.59-.97-17.48.28-6.9.41-13.8.64-20.66.14-4.88.32-9.71.55-14.59.09-1.66.37-3.31.83-4.92.97-3.31,3.68-5.2,6.99-4.79,5.94.74,11.69-.14,17.35-1.75,2.02-.55,4-1.24,5.98-1.84,2.02-.6,4.05-.97,6.17-.78,3.77.32,6.63,2.21,8.7,5.29.97,1.43,1.66,2.99,2.35,4.6.83,1.84,1.43,3.77,2.21,5.71,1.61,4.09,4.42,7.13,8.51,8.79,3.31,1.33,5.89,3.54,7.87,6.44,8.93,12.88,17.81,25.72,26.78,38.56,2.58,3.68,5.38,7.22,8.6,10.35.74.74,1.61,1.38,2.53,1.84,1.24.64,2.3.28,2.94-1.01.37-.69.6-1.52.64-2.3.46-5.57.92-11.18,1.24-16.75.14-2.39,0-4.79-.23-7.18-.78-9.48-.6-18.96,0-28.39.23-4.09.51-8.24.83-12.33.05-.87.18-1.7.37-2.58,1.06-4.69,4.09-7.55,8.83-8.19,1.38-.18,2.81-.32,4.23-.28,4.74.14,9.52.09,14.22.6,8.7.87,14.68,6.58,15.97,15.14.87,5.66,1.33,11.36,1.93,17.07.41,4,.64,7.96.97,11.96v1.33l.05-.05Z"></path><path class="cls-1" d="m195.7,131.49v-8.88c.09-5.8,1.93-10.86,6.17-14.95,3.22-3.08,7.13-4.79,11.5-5.43,2.67-.41,5.29-.14,7.91.18,5.84.69,11.59.46,17.02-2.02,2.07-.97,4.14-2.02,5.89-3.45,3.63-2.9,7.73-4.23,12.24-4.69,5.52-.55,11.04-1.24,16.43-2.58,2.81-.69,5.38-1.75,7.45-3.86,4.09-4.19,4.83-10.9,1.79-15.87-1.61-2.62-3.86-3.86-6.95-3.59-6.95.64-13.85,1.29-20.61,3.27-6.67,1.98-12.42,5.34-16.98,10.63-1.29,1.52-2.85,2.16-4.88,2.02-7.64-.51-15.28-.69-22.87-1.84-3.08-.46-5.84-1.47-7.96-3.91-3.5-4.05-3.73-10.58-.46-14.91,1.01-1.33,2.3-2.62,3.68-3.59,6.3-4.32,12.97-8.1,20.2-10.67,8.83-3.17,17.85-4.05,27.1-2.12,4.92,1.06,9.94.87,14.91.23,2.99-.37,5.98-.87,8.97-1.29,6.67-.92,13.02.23,19.14,2.9,9.57,4.19,17.07,10.72,21.85,20.15,3.31,6.49,4.05,13.2,2.3,20.29-.69,2.85-1.29,5.75-1.7,8.7-.74,5.02-.09,9.89,2.07,14.45,1.93,4.09,2.07,8.28,1.52,12.61-.41,3.5-.97,6.95-1.15,10.44-.18,3.45.37,6.86,1.2,10.26.41,1.7.74,3.54.69,5.29-.23,5.06-4.05,9.39-9.29,10.67-1.15.28-2.3.46-3.45.46-5.8.14-11.59.18-17.39.28-4.28,0-7.96-1.33-10.72-4.83-2.07-2.58-5.43-3.31-8.28-.83-3.17,2.81-7.13,4.19-11.23,4.88-7.96,1.33-15.83,3.22-23.7,4.97-11.36,2.53-22.08.6-31.98-5.43-6.63-4-9.89-10.12-10.31-17.76-.18-3.36,0-6.76,0-10.17h-.14Zm55.07,9.8c2.9.05,5.84-.14,8.6-1.38,6.21-2.71,12.42-5.43,18.59-8.19,1.93-.83,3.82-1.75,5.66-2.76,3.59-1.98,4.46-5.75,2.12-9.11-.74-1.01-1.7-1.93-2.76-2.71-1.61-1.15-3.17-2.3-4.46-3.82-1.52-1.75-3.59-2.58-5.89-2.67-1.1,0-2.21,0-3.31.09-6.44.55-12.88,1.2-19.32,1.75-3.36.28-6.3,1.52-9.02,3.4-.78.55-1.56,1.29-2.02,2.12-2.07,3.4-3.27,7.09-2.76,11.09.83,6.76,4.42,10.58,10.54,11.59,1.33.23,2.67.37,4.09.55l-.05.05Z"></path><path class="cls-1" d="m718.42,103.1c0,10.12-2.39,19.74-6.49,28.99-2.07,4.69-4.23,9.29-7.73,13.16-4,4.46-8.83,7.68-14.45,9.66-3.08,1.1-6.26,1.2-9.48.41-1.2-.28-2.39-.51-3.63-.64-4.46-.51-8.24.92-11.32,4.23-3.27,3.5-7.32,4.92-12.01,4.46-2.81-.28-5.61-.97-8.42-1.24-4.79-.46-9.57-.78-14.36-1.1-3.36-.28-6.81-.46-10.03-1.52-2.02-.69-4.09-1.52-5.84-2.67-7.45-4.83-14.45-10.31-21.39-15.87-2.53-2.02-3.86-4.56-4.05-7.91-.46-7.91-2.3-15.55-4.56-23.14-.64-2.07-1.24-4.14-2.02-6.12-1.38-3.68-1.61-7.41-.78-11.23,1.24-5.89,3.22-11.5,6.44-16.61,1.24-1.98,2.94-3.36,5.15-3.96,5.98-1.61,10.31-5.38,13.53-10.49,1.47-2.3,2.9-4.6,4.37-6.86,3.54-5.38,8.47-7.78,15-6.86,7.55,1.06,15,.37,22.41-1.1,2.53-.51,5.02-.55,7.55-.23,7.64,1.06,15.28,2.07,22.91,3.13,10.72,1.47,19.19,6.76,25.72,15.23,7.04,9.11,11.5,19.32,13.11,30.73.18,1.29.32,2.58.37,3.86.05,1.24,0,2.48,0,3.68Zm-92.53,3.08c-.14,6.95,1.15,12.51,4,17.71,4.74,8.6,13.9,13.11,23.6,11.64,8.93-1.38,16.52-8.65,17.85-17.44,1.01-6.53,1.56-13.07.83-19.69-.78-7.13-3.08-13.67-7.64-19.28-5.94-7.32-14.91-9.16-23.24-4.79-7.36,3.91-11.82,10.08-13.9,18.04-1.29,4.88-1.24,9.89-1.56,13.8h.05Z"></path><path class="cls-1" d="m555.31,72.32c0,3.36.09,6.76,0,10.12-.09,3.27-.78,6.49-1.93,9.57-1.1,2.94-1.24,5.89-.51,8.88,2.35,9.75,3.13,19.69,3.17,29.68,0,5.61.09,11.23.14,16.79,0,2.62-.37,5.15-1.52,7.55-2.58,5.29-7.04,7.91-12.7,8.7-3.54.51-6.99,0-10.49-.51-1.47-.18-2.94-.41-4.37-.78-4.19-1.01-7.55-3.36-9.89-6.95-3.82-5.89-5.75-12.38-5.94-19.37-.14-4.14.78-8.14,2.85-11.69,3.31-5.61,3.86-11.59,2.76-17.85-.64-3.77-1.61-7.45-2.16-11.23-1.33-9.57-2.62-19.14-3.77-28.76-.46-3.86.18-7.73,1.43-11.46,1.93-5.8,6.21-8.65,12.1-8.93,5.11-.23,10.21-.14,15.37,0,1.56,0,3.17.41,4.69.87,5.94,1.79,9.2,5.94,10.26,11.87.32,1.7.41,3.4.41,5.15.09,2.76,0,5.57,0,8.33h.09Z"></path><path class="cls-1" d="m43.91,205.43c-6.72,0-13.44.09-20.15,0-5.25-.09-10.44-.41-15.69-.74-1.47-.09-2.94-.46-4.28-.97-2.99-1.15-4.32-3.86-3.59-6.99,1.2-5.2,4.56-8.6,9.2-10.86,3.82-1.84,7.91-2.44,12.05-2.07,12.28,1.2,24.57,1.84,36.95,1.79,12.42-.09,24.75-.97,37.08-2.48,3.08-.37,6.3-.28,9.43-.05,11.13.74,22.27,1.66,33.36,2.48,4.74.37,9.48.6,14.17,1.15,2.25.28,4.51.83,6.58,1.7,5.43,2.25,6.76,8.1,2.99,12.61-2.99,3.63-6.81,5.43-11.59,5.52-9.2.18-18.36-.69-27.51-1.38-6.44-.46-12.88-1.43-19.37-1.2-5.61.23-11.23.46-16.79.97-11.18.97-22.41,1.56-33.63,1.1-3.08-.14-6.17-.23-9.25-.37v-.23h.05Z"></path><path class="cls-1" d="m534.98.13c1.84.09,4.37.32,6.9.32,5.15.05,8.88,3.31,9.98,8.47,1.06,5.15.46,10.17-1.56,15-1.47,3.59-4.28,5.48-8.14,5.75-5.43.41-10.81.64-16.2-.37-1.79-.32-3.63-.78-5.34-1.43-4-1.47-6.26-4.42-6.9-8.6-.6-4.19-.23-8.24,1.75-12.05,2.39-4.51,6.12-6.99,11.27-7.18,2.53-.09,5.06,0,8.24,0v.09Z"></path></g></g></g></g></svg>