<svg width="131" height="32" viewBox="0 0 131 32" fill="none" xmlns="http://www.w3.org/2000/svg">
<path d="M0.696576 24.503C1.41492 24.9522 2.90965 25.4751 4.07061 25.4751C5.2606 25.4751 5.74675 25.0553 5.74675 24.4072C5.74675 23.7591 5.36218 23.4424 3.88921 22.9416C1.28431 22.0505 0.282984 20.6144 0.312008 19.0972C0.312008 16.7184 2.32192 14.9141 5.43474 14.9141C6.90045 14.9141 8.21379 15.2528 8.99018 15.6432L8.2936 18.3902C7.72763 18.0735 6.64649 17.6611 5.56535 17.6611C4.61481 17.6611 4.07061 18.0514 4.07061 18.7069C4.07061 19.3108 4.56402 19.6201 6.10955 20.1725C8.50403 21.0121 9.51261 22.2346 9.53438 24.12C9.53438 26.4988 7.6841 28.2516 4.07061 28.2516C2.4235 28.2516 0.957791 27.8834 0 27.3605L0.696576 24.503Z" fill="#1B171B"/>
<path d="M23.3128 21.4466C23.3128 26.1232 20.0403 28.2737 16.6663 28.2737C12.9802 28.2737 10.1504 25.8139 10.1504 21.6823C10.1504 17.5507 12.8279 14.9141 16.8767 14.9141C20.7441 14.9067 23.3128 17.6022 23.3128 21.4466ZM14.1992 21.5718C14.1992 23.7665 15.099 25.4162 16.7751 25.4162C18.2989 25.4162 19.2712 23.8696 19.2712 21.5718C19.2712 19.6643 18.5528 17.7274 16.7751 17.7274C14.8958 17.7274 14.1992 19.6938 14.1992 21.5718Z" fill="#1B171B"/>
<path d="M24.7149 19.2735C24.7149 17.6828 24.6641 16.3203 24.6133 15.1935H28.0163L28.1977 16.9463H28.2776C28.7927 16.1362 30.077 14.9062 32.1668 14.9062C34.7426 14.9062 36.68 16.6296 36.68 20.393V27.9787H32.7618V20.8864C32.7618 19.2367 32.1958 18.1173 30.7809 18.1173C29.6997 18.1173 29.0539 18.8758 28.8 19.605C28.6984 19.8406 28.6404 20.231 28.6404 20.5992V27.9713H24.7294V19.2735H24.7149Z" fill="#1B171B"/>
<path d="M45.9372 27.9788L45.705 26.6973H45.6325C44.8125 27.721 43.521 28.266 42.0335 28.266C39.4794 28.266 37.9629 26.3806 37.9629 24.3406C37.9629 21.0191 40.9016 19.4209 45.3567 19.4504V19.2663C45.3567 18.5887 44.9939 17.6166 43.0639 17.6166C41.7795 17.6166 40.4154 18.0584 39.5882 18.5813L38.8626 16.0184C39.7406 15.5176 41.4675 14.8916 43.7604 14.8916C47.9616 14.8916 49.2967 17.403 49.2967 20.4078V24.8561C49.2967 26.086 49.3475 27.257 49.4781 27.964H45.9372V27.9788ZM45.4801 21.9397C43.4194 21.9102 41.8231 22.411 41.8231 23.9502C41.8231 24.9739 42.4906 25.4674 43.3686 25.4674C44.2829 25.4747 45.1028 24.8856 45.4003 24.0018C45.4511 23.7809 45.4801 23.5525 45.4801 23.3242V21.9397Z" fill="#1B171B"/>
<path d="M51.3594 19.4064C51.3594 17.5284 51.3086 16.2985 51.2578 15.2011H54.6318L54.7625 17.5505H54.864C55.5098 15.6946 57.0554 14.9139 58.2671 14.9139C58.5428 14.9066 58.8186 14.9213 59.0943 14.9655V18.7068C58.746 18.6405 58.3905 18.6037 58.0422 18.6037C56.5982 18.6037 55.6187 19.3917 55.3574 20.6216C55.3067 20.9162 55.2849 21.2108 55.2849 21.5127V27.9937H51.3667L51.3594 19.4064Z" fill="#1B171B"/>
<path d="M84.9261 24.5247C84.9261 25.8283 84.9551 26.9846 85.0276 27.9788H83.0177L82.8871 25.9093H82.8363C82.2413 26.9257 80.928 28.266 78.7149 28.266C76.7558 28.266 74.4121 27.1687 74.4121 22.7204V15.3262H76.676V22.33C76.676 24.731 77.3943 26.3586 79.455 26.3586C80.9715 26.3586 82.0309 25.2833 82.4445 24.267C82.5824 23.8914 82.6477 23.4937 82.6477 23.0886V15.3262H84.9116V24.5247H84.9261Z" fill="#1B171B"/>
<path d="M87.5586 27.9786C87.6094 27.117 87.6602 25.8355 87.6602 24.7087V9.41211H89.9023V17.366H89.9531C90.7512 15.952 92.1952 15.0388 94.2051 15.0388C97.2961 15.0388 99.4874 17.6533 99.4584 21.4977C99.4584 26.0196 96.6504 28.2732 93.8713 28.2732C92.0646 28.2732 90.6279 27.5662 89.6991 25.8944H89.6193L89.5177 27.986L87.5586 27.9786ZM89.9023 22.9043C89.9095 23.1842 89.9458 23.4641 90.0039 23.7439C90.4392 25.3347 91.7526 26.4321 93.3997 26.4321C95.7724 26.4321 97.1873 24.473 97.1873 21.5713C97.1873 19.0378 95.903 16.8652 93.4795 16.8652C91.934 16.8652 90.49 17.9331 90.0256 19.6859C89.9748 19.9511 89.895 20.2604 89.895 20.6286V22.9043H89.9023Z" fill="#1B171B"/>
<path d="M102.55 22.0719C102.601 25.1799 104.56 26.4613 106.824 26.4613C108.45 26.4613 109.429 26.1741 110.278 25.8059L110.663 27.4556C109.864 27.8238 108.5 28.2362 106.512 28.2362C102.674 28.2362 100.381 25.6733 100.381 21.8584C100.381 18.0434 102.594 15.0312 106.229 15.0312C110.3 15.0312 111.381 18.6694 111.381 20.9967C111.381 21.3576 111.352 21.7111 111.308 22.0646L102.55 22.0719ZM109.197 20.4222C109.226 18.9567 108.609 16.681 106.055 16.681C103.762 16.681 102.761 18.8241 102.572 20.4222H109.197Z" fill="#1B171B"/>
<path d="M71.7265 17.6014C69.6368 14.4787 65.4501 13.6686 62.3736 15.7897C59.297 17.9107 58.4989 22.1602 60.5886 25.2828C62.4099 28.0004 65.871 29.0167 68.8387 27.7058L71.4436 31.9995L73.5115 30.5707L70.9066 26.2771C73.1995 23.9645 73.5478 20.319 71.7265 17.6014ZM68.8096 25.4007C66.6546 26.8883 63.7232 26.3212 62.2575 24.1339C60.7918 21.9466 61.3505 18.9712 63.5055 17.4836C65.6605 15.9959 68.592 16.563 70.0577 18.7503C71.5161 20.9376 70.9574 23.913 68.8096 25.4007Z" fill="#1B171B"/>
<path d="M126.878 28.0302H125.282C125.282 14.9799 114.674 4.36731 101.635 4.36731V2.74707C115.552 2.74707 126.878 14.0888 126.878 28.0302Z" fill="#4E9BCD"/>
<path d="M127.981 19.3324C126.066 11.1428 119.528 4.30835 111.336 1.92217L111.699 0.625977C120.348 3.14472 127.248 10.3622 129.273 19.0231L127.981 19.3324Z" fill="#4E9BCD"/>
<path d="M129.209 11.651C127.235 7.28373 123.868 3.4688 119.732 0.920593L120.284 0C124.601 2.65867 128.113 6.643 130.174 11.2091L129.209 11.651Z" fill="#4E9BCD"/>
</svg>
